<?xml version="1.0" encoding="iso-8859-1"?>
<!-- Uploaded to: SVG Repo, www.svgrepo.com, Generator: SVG Repo Mixer Tools -->
<svg  version="1.1" id="Capa_1" xmlns="http://www.w3.org/2000/svg" xmlns:xlink="http://www.w3.org/1999/xlink" 
	 viewBox="0 0 400.652 400.652" xml:space="preserve">
<g>
	<path d="M103.204,263.658c4.454-0.602,7.576-4.698,6.966-9.145c-0.602-4.438-4.715-7.551-9.145-6.966
		c-42.561,5.755-64.297,1.195-70.458-4.991c-13.29-13.38-17.785-38.708-11.437-64.525c6.015-24.532,31.157-85.114,134.268-117.816
		c64.273-20.37,124.912-12.323,170.798,22.695c38.814,29.621,61.842,75.059,60.103,118.58
		c-1.78,44.065-24.061,86.935-59.591,114.686c-28.995,22.646-80.099,46.203-158.889,29.873c-3.178-0.658-5.267-2.057-6.787-4.536
		c-2.52-4.097-5.617-15.079,1.886-42.626c1.187-4.333-1.374-8.803-5.706-9.982c-4.324-1.171-8.795,1.374-9.974,5.706
		c-7.039,25.865-7.064,43.984-0.065,55.396c3.845,6.267,9.844,10.396,17.346,11.949c19.5,4.048,37.448,5.796,53.933,5.796
		c55.226,0,93.836-19.704,118.263-38.773c39.253-30.653,63.858-78.067,65.833-126.846c1.951-48.731-23.532-99.372-66.492-132.163
		C283.862,31.668,217.98,22.686,148.489,44.707C37.525,79.903,10.027,146.956,3.345,174.154
		c-7.779,31.685-1.764,62.281,15.696,79.855C31.275,266.324,59.603,269.567,103.204,263.658z"/>
	<path d="M92.873,118.823c-19.72,0-35.749,16.038-35.749,35.749c0,19.72,16.038,35.758,35.749,35.758
		c19.72,0,35.758-16.046,35.758-35.758C128.631,134.869,112.593,118.823,92.873,118.823z M92.873,174.081
		c-10.746,0-19.492-8.746-19.492-19.5c0-10.746,8.746-19.492,19.492-19.492c10.754,0,19.5,8.746,19.5,19.492
		C112.373,165.335,103.627,174.081,92.873,174.081z"/>
	<path d="M162.567,69.97c-19.72,0-35.758,16.038-35.758,35.758s16.046,35.758,35.758,35.758
		c19.704,0,35.733-16.046,35.733-35.758C198.309,86.008,182.271,69.97,162.567,69.97z M162.567,125.228
		c-10.754,0-19.5-8.746-19.5-19.5c0-10.746,8.746-19.5,19.5-19.5c10.738,0,19.476,8.746,19.476,19.5
		C182.052,116.482,173.305,125.228,162.567,125.228z"/>
	<path d="M238.635,69.97c-19.72,0-35.758,16.038-35.758,35.758s16.046,35.758,35.758,35.758
		c19.72,0,35.758-16.046,35.758-35.758C274.392,86.008,258.346,69.97,238.635,69.97z M238.635,125.228
		c-10.754,0-19.5-8.746-19.5-19.5c0-10.746,8.746-19.5,19.5-19.5s19.5,8.746,19.5,19.5
		C258.135,116.482,249.389,125.228,238.635,125.228z"/>
	<path d="M305.11,108.41c-19.72,0-35.766,16.046-35.766,35.758c0,19.72,16.046,35.758,35.766,35.758
		c19.72,0,35.758-16.038,35.758-35.758C340.876,124.456,324.83,108.41,305.11,108.41z M305.11,163.676
		c-10.754,0-19.509-8.746-19.509-19.5s8.746-19.5,19.509-19.5c10.754,0,19.5,8.746,19.5,19.5
		C324.619,154.922,315.872,163.676,305.11,163.676z"/>
	<path d="M293.389,226.47c0,19.72,16.046,35.758,35.758,35.758s35.758-16.046,35.758-35.758
		s-16.046-35.758-35.758-35.758S293.389,206.75,293.389,226.47z M348.655,226.47c0,10.754-8.746,19.5-19.5,19.5
		s-19.5-8.746-19.5-19.5s8.746-19.5,19.5-19.5C339.908,206.969,348.655,215.715,348.655,226.47z"/>
	<path d="M183.84,301.196c4.284,14.436,19.118,24.134,36.879,24.134c4.902,0,9.836-0.723,14.664-2.162
		c22.801-6.779,36.774-27.678,31.141-46.577c-4.292-14.436-19.118-24.134-36.879-24.134c-4.902,0-9.827,0.723-14.664,2.162
		C192.196,261.398,178.223,282.297,183.84,301.196z M219.622,270.201c3.325-0.992,6.698-1.488,10.023-1.488
		c10.51,0,19.078,5.032,21.297,12.518c3.016,10.136-6.235,22.199-20.191,26.361c-3.325,0.992-6.69,1.488-10.023,1.488
		c-10.51,0-19.078-5.032-21.297-12.51C196.407,286.426,205.657,274.355,219.622,270.201z"/>
</g>
</svg>